<?xml version="1.0" standalone="no"?>
<!DOCTYPE svg PUBLIC "-//W3C//DTD SVG 20010904//EN"
 "http://www.w3.org/TR/2001/REC-SVG-20010904/DTD/svg10.dtd">
<svg version="1.0" xmlns="http://www.w3.org/2000/svg"
 width="512.000000pt" height="512.000000pt" viewBox="0 0 512.000000 512.000000"
 preserveAspectRatio="xMidYMid meet">
<metadata>
Created by potrace 1.11, written by Peter Selinger 2001-2013
</metadata>
<g transform="translate(0.000000,512.000000) scale(0.100000,-0.100000)"
fill="#000000" stroke="none">
<path d="M341 3458 c-81 -350 -113 -487 -126 -543 -19 -74 -143 -610 -149
-639 -3 -11 -18 -79 -35 -149 -17 -71 -31 -135 -31 -143 0 -11 22 -14 114 -14
101 0 115 2 120 18 6 23 22 91 121 517 81 349 116 500 120 515 3 16 61 260 95
405 12 50 24 101 26 115 3 14 7 33 10 43 5 15 -5 17 -113 17 l-119 0 -33 -142z"/>
<path d="M4841 3418 c-23 -101 -45 -194 -47 -208 -3 -14 -11 -50 -19 -80 -8
-30 -49 -203 -91 -385 -42 -181 -98 -424 -125 -540 -27 -115 -49 -216 -49
-222 0 -10 30 -13 115 -13 l114 0 10 38 c6 20 22 89 36 152 14 63 58 250 96
415 39 165 73 311 75 324 3 13 25 107 49 210 25 102 59 247 75 321 17 74 33
143 36 153 5 15 -5 17 -113 17 l-119 0 -43 -182z"/>
<path d="M1058 3165 c-2 -2 -20 -6 -40 -9 -101 -16 -200 -73 -251 -145 -50
-70 -60 -99 -63 -185 -3 -105 24 -171 98 -238 64 -59 151 -94 386 -154 95 -24
184 -51 197 -60 46 -30 43 -107 -6 -148 -60 -51 -243 -60 -314 -16 -45 28 -80
71 -95 115 -13 39 -2 38 -125 19 -16 -2 -63 -8 -103 -13 -41 -5 -75 -11 -77
-13 -9 -9 34 -104 69 -151 66 -91 190 -164 310 -185 69 -12 288 -7 346 7 94
23 176 69 232 130 74 81 92 127 92 236 1 205 -86 276 -454 372 -74 19 -146 38
-160 41 -86 19 -135 75 -112 127 19 41 73 58 183 59 126 1 182 -26 213 -105 9
-22 17 -39 19 -39 4 0 101 18 137 25 14 3 41 8 60 10 79 12 79 12 70 45 -16
55 -71 139 -114 175 -89 73 -205 104 -388 103 -59 -1 -109 -2 -110 -3z"/>
<path d="M3625 3156 c-177 -44 -312 -197 -350 -396 -12 -63 -14 -274 -4 -330
29 -150 111 -287 217 -360 73 -50 130 -65 243 -65 88 1 102 4 162 33 36 18 89
55 117 82 l51 49 -2 -134 c-3 -165 -18 -209 -82 -245 -33 -19 -60 -24 -125
-27 -116 -3 -173 24 -187 88 -4 16 -12 29 -18 30 -7 0 -19 2 -27 3 -8 2 -46 6
-83 10 -37 3 -82 8 -100 11 -18 2 -56 6 -86 10 l-53 5 4 -62 c13 -168 124
-273 329 -312 88 -17 298 -17 378 0 136 29 238 97 285 190 60 119 59 113 64
792 l3 622 -140 0 -141 0 0 -82 0 -82 -26 32 c-44 53 -126 109 -189 130 -70
23 -168 26 -240 8z m286 -241 c50 -26 96 -81 120 -144 18 -46 22 -78 23 -176
1 -158 -17 -219 -89 -290 -134 -134 -323 -81 -381 107 -26 87 -26 269 0 350
29 89 91 151 171 172 35 9 122 -2 156 -19z"/>
<path d="M1991 2728 c1 -375 3 -431 19 -495 22 -85 54 -139 109 -183 62 -49
133 -73 228 -76 135 -5 248 40 343 139 l50 52 0 -83 0 -82 140 0 140 0 0 575
0 575 -150 0 -150 0 -1 -307 c-1 -477 -4 -499 -77 -572 -91 -91 -239 -94 -306
-7 -42 56 -43 66 -45 539 l-1 347 -150 0 -151 0 2 -422z"/>
</g>
</svg>
